<svg xmlns="http://www.w3.org/2000/svg" width="45.634" height="49.285" viewBox="0 0 45.634 49.285">
  <path id="icons8_business_building" d="M15.635,5a1.825,1.825,0,1,0,0,3.651h21.9a1.825,1.825,0,1,0,0-3.651Zm-5.476,7.3a1.825,1.825,0,1,0,0,3.651V48.809h6.924a9.614,9.614,0,0,1,4.029-3.43V40.138a6.454,6.454,0,0,1-.275-1.8,5.823,5.823,0,0,1,.064-.877,8.49,8.49,0,0,1-.542-2.945,9.276,9.276,0,0,1,1.95-5.783h-1.2V25.079h3.651v1.462a10.124,10.124,0,0,1,3.651-1.3v-.16h3.651v.285a7.264,7.264,0,0,1,2.389,1.187,6.11,6.11,0,0,1,1.262.481V25.079h3.651v.613a10.84,10.84,0,0,1,3.651-.613V15.952a1.825,1.825,0,1,0,0-3.651Zm3.651,5.476H17.46v3.651H13.809Zm7.3,0h3.651v3.651H21.111Zm7.3,0h3.651v3.651H28.412Zm7.3,0h3.651v3.651H35.714Zm-21.9,7.3H17.46V28.73H13.809Zm29.206,3.647c-3.439,0-6.228,2.074-6.228,5.783a5.278,5.278,0,0,0,.877,2.788s-.4.2-.4,1.034a1.993,1.993,0,0,0,1.048,2.018c.146,1.289,2.146,3.177,2.146,3.177v2.15c-1.075,3.229-8.4,1.38-8.4,8.61h21.9c0-7.23-7.321-5.381-8.4-8.61v-2.15s2-1.888,2.146-3.177a2.622,2.622,0,0,0,1.048-2.018c0-.9-.4-1.034-.4-1.034a6.717,6.717,0,0,0,.717-2.667c0-2.612-1.308-4.624-3.512-4.624A3.4,3.4,0,0,0,43.015,28.726Zm-12.778,0c-3.439,0-6.228,2.074-6.228,5.783A5.264,5.264,0,0,0,24.89,37.3s-.4.2-.4,1.034a1.986,1.986,0,0,0,1.044,2.014c.146,1.289,2.15,3.177,2.15,3.177v2.153c-1.079,3.227-8.4,1.376-8.4,8.606h9.127c0-4.662,2.261-7.038,4.5-8.375a2.48,2.48,0,0,1-.114-.232V43.525a11.945,11.945,0,0,0,1.669-2.011,6.19,6.19,0,0,1-.849-3.18,5.823,5.823,0,0,1,.064-.877,8.49,8.49,0,0,1-.542-2.945,9.559,9.559,0,0,1,.97-4.211,3.1,3.1,0,0,0-1.312-.3A3.4,3.4,0,0,0,30.238,28.73ZM13.809,32.381H17.46v3.651H13.809Zm0,7.3H17.46v3.651H13.809Z" transform="translate(-8.333 -5)" fill="#fff"/>
</svg>
