<?xml version="1.0" encoding="utf-8"?>
<!-- Generator: Adobe Illustrator 25.0.0, SVG Export Plug-In . SVG Version: 6.00 Build 0)  -->
<svg version="1.1" id="Layer_1" xmlns="http://www.w3.org/2000/svg" xmlns:xlink="http://www.w3.org/1999/xlink" x="0px" y="0px"
	 viewBox="0 0 73.2 73.2" style="enable-background:new 0 0 73.2 73.2;" xml:space="preserve">
<style type="text/css">
	.st0{fill:#151D2C;}
	.st1{fill:#232F44;}
</style>
<g id="M" transform="translate(-47.506 -47.526)">
	<g id="Group_5" transform="translate(0)">
		<path id="Path_1" class="st0" d="M84.1,47.5c-20.2,0-36.6,16.4-36.6,36.6s16.4,36.6,36.6,36.6s36.6-16.4,36.6-36.6l0,0
			C120.7,63.9,104.3,47.5,84.1,47.5z M84.1,111.8c-15.3,0-27.7-12.4-27.7-27.7c0-15.3,12.4-27.7,27.7-27.7
			c15.3,0,27.7,12.4,27.7,27.7C111.8,99.4,99.4,111.8,84.1,111.8C84.1,111.8,84.1,111.8,84.1,111.8L84.1,111.8z"/>
		<g id="Group_4" transform="translate(47.77 47.526)">
			<path id="Path_2" class="st1" d="M36.3,8.9c0.7,0,1.4,0.1,2.1,0.1V0.1C37.7,0,37,0,36.3,0s-1.4,0-2.1,0.1V9
				C34.9,8.9,35.6,8.9,36.3,8.9z"/>
			<path id="Path_3" class="st1" d="M28.8,9.9l-3-8.4c-1.3,0.4-2.6,0.9-3.9,1.4l3,8.4C26.2,10.8,27.5,10.3,28.8,9.9z"/>
			<path id="Path_4" class="st1" d="M20.1,14.1l-5.7-6.8c-1.1,0.8-2.1,1.7-3.1,2.7l5.7,6.8C18,15.8,19,14.9,20.1,14.1z"/>
			<path id="Path_5" class="st1" d="M13.4,21l-7.7-4.4c-0.8,1.1-1.4,2.3-2.1,3.6l7.7,4.5C12,23.3,12.6,22.1,13.4,21z"/>
			<path id="Path_6" class="st1" d="M9.5,29.8l-8.8-1.5c-0.3,1.3-0.5,2.7-0.7,4l8.7,1.5C8.9,32.4,9.1,31.1,9.5,29.8z"/>
			<path id="Path_7" class="st1" d="M8.7,39.4L0,40.9c0.2,1.4,0.4,2.7,0.7,4.1l8.8-1.5C9.1,42.1,8.9,40.7,8.7,39.4z"/>
			<path id="Path_8" class="st1" d="M11.4,48.6l-7.7,4.4c0.6,1.2,1.3,2.4,2.1,3.6l7.7-4.4C12.6,51,12,49.9,11.4,48.6z"/>
			<path id="Path_9" class="st1" d="M17,56.4l-5.7,6.8c1,0.9,2,1.8,3.1,2.6l5.7-6.8C19,58.3,18,57.4,17,56.4z"/>
			<path id="Path_10" class="st1" d="M24.9,61.8l-3,8.4c1.3,0.5,2.6,1,3.9,1.4l3-8.4C27.5,62.9,26.2,62.4,24.9,61.8z"/>
			<path id="Path_11" class="st1" d="M36.3,64.3c-0.7,0-1.4-0.1-2.1-0.1v8.9c0.7,0,1.4,0.1,2.1,0.1s1.4,0,2.1-0.1v-8.9
				C37.7,64.2,37,64.3,36.3,64.3z"/>
			<path id="Path_12" class="st1" d="M43.8,63.2l3,8.4c1.3-0.4,2.6-0.9,3.9-1.4l-3-8.4C46.4,62.4,45.2,62.9,43.8,63.2z"/>
			<path id="Path_13" class="st1" d="M52.5,59.1l5.7,6.8c1.1-0.8,2.1-1.7,3.1-2.6l-5.7-6.8C54.7,57.4,53.6,58.3,52.5,59.1z"/>
			<path id="Path_14" class="st1" d="M59.2,52.2l7.7,4.4c0.8-1.1,1.4-2.3,2.1-3.6l-7.7-4.4C60.7,49.8,60,51,59.2,52.2z"/>
			<path id="Path_15" class="st1" d="M63.9,39.4c-0.1,1.4-0.4,2.7-0.7,4l8.8,1.5c0.3-1.3,0.5-2.7,0.7-4.1L63.9,39.4z"/>
			<path id="Path_16" class="st1" d="M63.9,33.8l8.7-1.5c-0.2-1.4-0.4-2.7-0.7-4l-8.8,1.5C63.5,31.1,63.8,32.4,63.9,33.8z"/>
			<path id="Path_17" class="st1" d="M61.3,24.6l7.7-4.5c-0.6-1.2-1.3-2.4-2.1-3.6L59.2,21C60,22.1,60.7,23.3,61.3,24.6z"/>
			<path id="Path_18" class="st1" d="M55.6,16.7l5.7-6.8c-1-0.9-2-1.8-3.1-2.7l-5.7,6.8C53.6,14.9,54.7,15.8,55.6,16.7z"/>
			<path id="Path_19" class="st1" d="M47.7,11.3l3-8.4c-1.3-0.5-2.6-1-3.9-1.4l-3,8.4C45.2,10.3,46.4,10.8,47.7,11.3z"/>
		</g>
		<path id="icons8_target" class="st0" d="M83.9,62.4c-0.1,0-0.1,0-0.2,0.1c-0.8,0.2-1.3,0.9-1.3,1.6v1.7
			c-8.6,0.8-15.4,7.6-16.2,16.2h-1.9c-0.9,0-1.6,0.8-1.5,1.7c0,0.9,0.8,1.6,1.7,1.5h1.7c0.8,8.6,7.6,15.4,16.2,16.2v1.7
			c0,0.9,0.7,1.6,1.6,1.7c0.9,0,1.6-0.7,1.7-1.6c0,0,0-0.1,0-0.1v-1.7c8.6-0.8,15.4-7.6,16.2-16.2h1.7c0.9,0,1.6-0.7,1.7-1.6
			c0-0.9-0.7-1.6-1.6-1.7c0,0-0.1,0-0.1,0h-1.7c-0.8-8.6-7.6-15.4-16.2-16.2v-1.7c0-0.9-0.7-1.7-1.6-1.7
			C84.1,62.4,84,62.4,83.9,62.4z M82.5,70.7v1.5c0,0.9,0.7,1.6,1.6,1.7c0.9,0,1.6-0.7,1.7-1.6c0,0,0-0.1,0-0.1v-1.5
			C91.6,71.5,96.3,76.1,97,82h-1.7c-0.9,0-1.6,0.8-1.5,1.7c0,0.9,0.8,1.6,1.7,1.5l0,0H97c-0.7,5.9-5.4,10.5-11.3,11.3V95
			c0-0.9-0.7-1.6-1.6-1.7c-0.9,0-1.6,0.7-1.7,1.6c0,0,0,0.1,0,0.1v1.5c-5.9-0.7-10.5-5.4-11.3-11.3h1.5c0.9,0,1.6-0.7,1.7-1.6
			c0-0.9-0.7-1.6-1.6-1.7c0,0-0.1,0-0.1,0h-1.5C71.9,76.1,76.6,71.5,82.5,70.7z"/>
	</g>
</g>
</svg>
